# xmcd CD database file
# Copyright (C) 1993-1998 Ti Kan
#
# Track frame offsets:
#	180
#	25598
#	42739
#	57235
#	82371
#	106148
#	129273
#	148329
#	170425
#	199020
#	215888
#
# Disc length: 3397 seconds
#
# Revision: 1
# Processed by: cddbd v1.4b41PL1 Copyright (c) Steve Scherf et al.
# Submitted via: CDValet v3.31 - Copyright (c) 1997 Greg Leichner
#
DISCID=a60d430b
DTITLE=Yo and De Cats - It Ain't Rocket Science
DYEAR=1900
DGENRE=
TTITLE0=Payday Shuffle
TTITLE1=Lyin' To Me
TTITLE2=I Gotta Woman
TTITLE3=Man Builds A House
TTITLE4=Sick and Tired
TTITLE5=T-Bone Shuffle
TTITLE6=Don't Kick Me When I'm Down
TTITLE7=Vonnegut Sonata
TTITLE8=It Ain't Rocket Science
TTITLE9=Loudmouth
TTITLE10=Rockinitis
EXTD=Recorded absolutely live with two dented, road proven shur
EXTD=e 57 mics directly into a tascam dat machine
EXTT0=
EXTT1=
EXTT2=
EXTT3=
EXTT4=
EXTT5=
EXTT6=
EXTT7=
EXTT8=
EXTT9=
EXTT10=
PLAYORDER=
